<svg width="1000" height="1000" viewBox="0 0 1000 1000" fill="none" xmlns="http://www.w3.org/2000/svg">
<g clip-path="url(#clip0_328_2)">
<rect width="1000" height="1000" fill="#C5C5C5"/>
<path d="M689 691L624 624" stroke="black"/>
<path d="M309 691L376 624" stroke="black"/>
<path d="M311 310L378 377" stroke="black"/>
<path d="M693 306L622 378" stroke="black"/>
<rect x="375" y="375" width="250" height="250" fill="#D9D9D9"/>
<path d="M500 500L375 625H625L500 500Z" fill="#0085FF"/>
<path d="M500 500L625 625L625 375L500 500Z" fill="#FF0000"/>
<path d="M500 500L625 375L375 375L500 500Z" fill="#0EF36A"/>
<path d="M500 500L375 375L375 625L500 500Z" fill="#D9C517"/>
<mask id="path-10-inside-1_328_2" fill="white">
<path d="M437 625H562V672H437V625Z"/>
</mask>
<path d="M437 625H562V672H437V625Z" fill="#0085FF"/>
<path d="M562 672V673H563V672H562ZM437 672H436V673H437V672ZM561 625V672H563V625H561ZM562 671H437V673H562V671ZM438 672V625H436V672H438Z" fill="black" mask="url(#path-10-inside-1_328_2)"/>
<rect x="437.5" y="813.5" width="124" height="46" fill="#0085FF" stroke="black"/>
<rect x="562.5" y="813.5" width="124" height="46" stroke="black"/>
<rect x="312.5" y="813.5" width="124" height="46" stroke="black"/>
<rect x="437.5" y="719.5" width="124" height="46" fill="#0085FF" stroke="black"/>
<rect x="562.5" y="719.5" width="124" height="46" stroke="black"/>
<rect x="312.5" y="719.5" width="124" height="46" stroke="black"/>
<rect x="437.5" y="907.5" width="124" height="46" fill="#0085FF" stroke="black"/>
<rect x="562.5" y="907.5" width="124" height="46" stroke="black"/>
<rect x="312.5" y="907.5" width="124" height="46" stroke="black"/>
<rect x="437.5" y="672.5" width="124" height="46" fill="#0085FF" stroke="black"/>
<rect x="437.5" y="860.5" width="124" height="46" fill="#0085FF" stroke="black"/>
<rect x="562.5" y="860.5" width="124" height="46" stroke="black"/>
<rect x="312.5" y="860.5" width="124" height="46" stroke="black"/>
<rect x="437.5" y="766.5" width="124" height="46" fill="#0085FF" stroke="black"/>
<rect x="562" y="766" width="125" height="47" fill="#0085FF"/>
<rect x="312.5" y="766.5" width="124" height="46" stroke="black"/>
<rect x="437.5" y="954.5" width="124" height="46" fill="#0085FF" stroke="black"/>
<rect x="562.5" y="954.5" width="124" height="46" stroke="black"/>
<rect x="312.5" y="954.5" width="124" height="46" stroke="black"/>
<rect x="692" y="692" width="303" height="303" fill="#8A8A8A" stroke="#0085FF" stroke-width="10"/>
<rect x="5" y="5" width="303" height="303" fill="#8A8A8A" stroke="#0EF36A" stroke-width="10"/>
<rect x="692" y="5" width="303" height="303" fill="#787878" stroke="#FF0000" stroke-width="10"/>
<rect x="5" y="692" width="303" height="303" fill="#8A8A8A" stroke="#D9C517" stroke-width="10"/>
<mask id="path-35-inside-2_328_2" fill="white">
<path d="M563 374L438 374L438 327L563 327L563 374Z"/>
</mask>
<path d="M563 374L438 374L438 327L563 327L563 374Z" fill="#0EF36A"/>
<path d="M438 327L438 326L437 326L437 327L438 327ZM563 327L564 327L564 326L563 326L563 327ZM439 374L439 327L437 327L437 374L439 374ZM438 328L563 328L563 326L438 326L438 328ZM562 327L562 374L564 374L564 327L562 327Z" fill="black" mask="url(#path-35-inside-2_328_2)"/>
<mask id="path-37-inside-3_328_2" fill="white">
<path d="M376 437L376 562L329 562L329 437L376 437Z"/>
</mask>
<path d="M376 437L376 562L329 562L329 437L376 437Z" fill="#D9C517"/>
<path d="M329 562L328 562L328 563L329 563L329 562ZM329 437L329 436L328 436L328 437L329 437ZM376 561L329 561L329 563L376 563L376 561ZM330 562L330 437L328 437L328 562L330 562ZM329 438L376 438L376 436L329 436L329 438Z" fill="black" mask="url(#path-37-inside-3_328_2)"/>
<mask id="path-39-inside-4_328_2" fill="white">
<path d="M624 563L624 438L671 438L671 563L624 563Z"/>
</mask>
<path d="M624 563L624 438L671 438L671 563L624 563Z" fill="#FF0000"/>
<path d="M671 438L672 438L672 437L671 437L671 438ZM671 563L671 564L672 564L672 563L671 563ZM624 439L671 439L671 437L624 437L624 439ZM670 438L670 563L672 563L672 438L670 438ZM671 562L624 562L624 564L671 564L671 562Z" fill="black" mask="url(#path-39-inside-4_328_2)"/>
<rect x="562.5" y="185.5" width="124" height="46" transform="rotate(-180 562.5 185.5)" fill="#0EF36A" stroke="black"/>
<rect x="187.5" y="437.5" width="124" height="46" transform="rotate(90 187.5 437.5)" fill="#D9C517" stroke="black"/>
<mask id="path-43-inside-5_328_2" fill="white">
<path d="M812 563L812 438L859 438L859 563L812 563Z"/>
</mask>
<path d="M812 563L812 438L859 438L859 563L812 563Z" fill="#FF0000"/>
<path d="M813 563L813 438L811 438L811 563L813 563ZM858 438L858 563L860 563L860 438L858 438Z" fill="black" mask="url(#path-43-inside-5_328_2)"/>
<rect x="437.5" y="185.5" width="124" height="46" transform="rotate(-180 437.5 185.5)" stroke="black"/>
<rect x="187.5" y="562.5" width="124" height="46" transform="rotate(90 187.5 562.5)" stroke="black"/>
<rect x="812.5" y="437.5" width="124" height="46" transform="rotate(-90 812.5 437.5)" stroke="black"/>
<rect x="687.5" y="185.5" width="124" height="46" transform="rotate(-180 687.5 185.5)" stroke="black"/>
<rect x="187.5" y="312.5" width="124" height="46" transform="rotate(90 187.5 312.5)" stroke="black"/>
<rect x="812.5" y="687.5" width="124" height="46" transform="rotate(-90 812.5 687.5)" stroke="black"/>
<rect x="562.5" y="279.5" width="124" height="46" transform="rotate(-180 562.5 279.5)" fill="#0EF36A" stroke="black"/>
<rect x="281.5" y="437.5" width="124" height="46" transform="rotate(90 281.5 437.5)" fill="#D9C517" stroke="black"/>
<mask id="path-53-inside-6_328_2" fill="white">
<path d="M718 563L718 438L765 438L765 563L718 563Z"/>
</mask>
<path d="M718 563L718 438L765 438L765 563L718 563Z" fill="#FF0000"/>
<path d="M719 563L719 438L717 438L717 563L719 563ZM764 438L764 563L766 563L766 438L764 438Z" fill="black" mask="url(#path-53-inside-6_328_2)"/>
<rect x="437.5" y="279.5" width="124" height="46" transform="rotate(-180 437.5 279.5)" stroke="black"/>
<rect x="281.5" y="562.5" width="124" height="46" transform="rotate(90 281.5 562.5)" stroke="black"/>
<rect x="718.5" y="437.5" width="124" height="46" transform="rotate(-90 718.5 437.5)" stroke="black"/>
<rect x="687.5" y="279.5" width="124" height="46" transform="rotate(-180 687.5 279.5)" stroke="black"/>
<rect x="281.5" y="312.5" width="124" height="46" transform="rotate(90 281.5 312.5)" stroke="black"/>
<rect x="718.5" y="687.5" width="124" height="46" transform="rotate(-90 718.5 687.5)" stroke="black"/>
<rect x="562.5" y="91.5" width="124" height="46" transform="rotate(-180 562.5 91.5)" fill="#0EF36A" stroke="black"/>
<rect x="93.5" y="437.5" width="124" height="46" transform="rotate(90 93.5 437.5)" fill="#D9C517" stroke="black"/>
<mask id="path-63-inside-7_328_2" fill="white">
<path d="M906 563L906 438L953 438L953 563L906 563Z"/>
</mask>
<path d="M906 563L906 438L953 438L953 563L906 563Z" fill="#FF0000"/>
<path d="M907 563L907 438L905 438L905 563L907 563ZM952 438L952 563L954 563L954 438L952 438Z" fill="black" mask="url(#path-63-inside-7_328_2)"/>
<rect x="437.5" y="91.5" width="124" height="46" transform="rotate(-180 437.5 91.5)" stroke="black"/>
<rect x="93.5" y="562.5" width="124" height="46" transform="rotate(90 93.5 562.5)" stroke="black"/>
<rect x="906.5" y="437.5" width="124" height="46" transform="rotate(-90 906.5 437.5)" stroke="black"/>
<rect x="687.5" y="91.5" width="124" height="46" transform="rotate(-180 687.5 91.5)" stroke="black"/>
<rect x="93.5" y="312.5" width="124" height="46" transform="rotate(90 93.5 312.5)" stroke="black"/>
<rect x="906.5" y="687.5" width="124" height="46" transform="rotate(-90 906.5 687.5)" stroke="black"/>
<rect x="562.5" y="326.5" width="124" height="46" transform="rotate(-180 562.5 326.5)" fill="#0EF36A" stroke="black"/>
<rect x="328.5" y="437.5" width="124" height="46" transform="rotate(90 328.5 437.5)" fill="#D9C517" stroke="black"/>
<rect x="671.5" y="562.5" width="124" height="46" transform="rotate(-90 671.5 562.5)" fill="#FF0000" stroke="black"/>
<rect x="562.5" y="138.5" width="124" height="46" transform="rotate(-180 562.5 138.5)" fill="#0EF36A" stroke="black"/>
<rect x="140.5" y="437.5" width="124" height="46" transform="rotate(90 140.5 437.5)" fill="#D9C517" stroke="black"/>
<mask id="path-76-inside-8_328_2" fill="white">
<path d="M859 563L859 438L906 438L906 563L859 563Z"/>
</mask>
<path d="M859 563L859 438L906 438L906 563L859 563Z" fill="#FF0000"/>
<path d="M860 563L860 438L858 438L858 563L860 563ZM905 438L905 563L907 563L907 438L905 438Z" fill="black" mask="url(#path-76-inside-8_328_2)"/>
<rect x="437.5" y="138.5" width="124" height="46" transform="rotate(-180 437.5 138.5)" stroke="black"/>
<rect x="140.5" y="562.5" width="124" height="46" transform="rotate(90 140.5 562.5)" stroke="black"/>
<rect x="859.5" y="437.5" width="124" height="46" transform="rotate(-90 859.5 437.5)" stroke="black"/>
<rect x="687.5" y="138.5" width="124" height="46" transform="rotate(-180 687.5 138.5)" stroke="black"/>
<rect x="140.5" y="312.5" width="124" height="46" transform="rotate(90 140.5 312.5)" stroke="black"/>
<rect x="859.5" y="687.5" width="124" height="46" transform="rotate(-90 859.5 687.5)" stroke="black"/>
<rect x="562.5" y="232.5" width="124" height="46" transform="rotate(-180 562.5 232.5)" fill="#0EF36A" stroke="black"/>
<rect x="234.5" y="437.5" width="124" height="46" transform="rotate(90 234.5 437.5)" fill="#D9C517" stroke="black"/>
<mask id="path-86-inside-9_328_2" fill="white">
<path d="M765 563L765 438L812 438L812 563L765 563Z"/>
</mask>
<path d="M765 563L765 438L812 438L812 563L765 563Z" fill="#FF0000"/>
<path d="M766 563L766 438L764 438L764 563L766 563ZM811 438L811 563L813 563L813 438L811 438Z" fill="black" mask="url(#path-86-inside-9_328_2)"/>
<rect x="438" y="233" width="125" height="47" transform="rotate(-180 438 233)" fill="#0EF36A"/>
<rect x="235" y="562" width="125" height="47" transform="rotate(90 235 562)" fill="#D9C517"/>
<rect x="765" y="438" width="125" height="47" transform="rotate(-90 765 438)" fill="#FF0000"/>
<rect x="687.5" y="232.5" width="124" height="46" transform="rotate(-180 687.5 232.5)" stroke="black"/>
<rect x="234.5" y="312.5" width="124" height="46" transform="rotate(90 234.5 312.5)" stroke="black"/>
<rect x="765.5" y="687.5" width="124" height="46" transform="rotate(-90 765.5 687.5)" stroke="black"/>
<rect x="562.5" y="44.5" width="124" height="46" transform="rotate(-180 562.5 44.5)" fill="#0EF36A" stroke="black"/>
<rect x="46.5" y="437.5" width="124" height="46" transform="rotate(90 46.5 437.5)" fill="#D9C517" stroke="black"/>
<mask id="path-96-inside-10_328_2" fill="white">
<path d="M953 563L953 438L1000 438L1000 563L953 563Z"/>
</mask>
<path d="M953 563L953 438L1000 438L1000 563L953 563Z" fill="#FF0000"/>
<path d="M954 563L954 438L952 438L952 563L954 563ZM999 438L999 563L1001 563L1001 438L999 438Z" fill="black" mask="url(#path-96-inside-10_328_2)"/>
<rect x="437.5" y="44.5" width="124" height="46" transform="rotate(-180 437.5 44.5)" stroke="black"/>
<rect x="46.5" y="562.5" width="124" height="46" transform="rotate(90 46.5 562.5)" stroke="black"/>
<rect x="953.5" y="437.5" width="124" height="46" transform="rotate(-90 953.5 437.5)" stroke="black"/>
<rect x="687.5" y="44.5" width="124" height="46" transform="rotate(-180 687.5 44.5)" stroke="black"/>
<rect x="46.5" y="312.5" width="124" height="46" transform="rotate(90 46.5 312.5)" stroke="black"/>
<rect x="953.5" y="687.5" width="124" height="46" transform="rotate(-90 953.5 687.5)" stroke="black"/>
<path d="M560 672.5H671.5V558" stroke="black"/>
<path d="M328.5 561L328.5 672.5L443 672.5" stroke="black"/>
<path d="M440.5 327L329 327L329 441.5" stroke="black"/>
<path d="M671.5 438.5L671.5 327L557 327" stroke="black"/>
</g>
<defs>
<clipPath id="clip0_328_2">
<rect width="1000" height="1000" fill="white"/>
</clipPath>
</defs>
</svg>
